# xmcd CD database file
#
# Track frame offsets:
#	187
#	17654
#	41559
#	57002
#	77369
#	104354
#	121614
#	145244
#	163534
#	191387
#	218997
#	246429
#
# Disc length: 3575 seconds
#
# Revision: 3
# Processed by: cddbd v1.5.2PL0 Copyright (c) Steve Scherf et al.
# Submitted via: CDex 1.70beta2
#
DISCID=960df50c
DTITLE=Tony Remy - Boof
DYEAR=1994
DGENRE=Jazz
TTITLE0=Glide
TTITLE1=Boof!
TTITLE2=Mercy Mercy Me (The Ecology)
TTITLE3=Different People
TTITLE4=Reginald Miller
TTITLE5=Fewitcha Funk
TTITLE6=Geraldine
TTITLE7=Our Love Grows
TTITLE8=Tro
TTITLE9=Hazel's Dream
TTITLE10=It's been a long time
TTITLE11=Return of the Pork Pie
EXTD=YEAR: 1994
EXTT0=
EXTT1=
EXTT2=
EXTT3=
EXTT4=
EXTT5=
EXTT6=
EXTT7=
EXTT8=
EXTT9=
EXTT10=
EXTT11=
PLAYORDER=
